# xmcd
#
# Track frame offsets: 
#        150
#        24501
#        52037
#        71063
#        105402
#        121883
#        151738
#        176340
#        198930
#
# Disc length: 2994 seconds
#
# Revision: 1
# Processed by: cddbd v1.5.2PL0 Copyright (c) Steve Scherf et al.
# Submitted via: ExactAudioCopy v1.3
#
DISCID=6c0bb009
DTITLE=The Cash Box Kings - Cuttin' Heads At The Cuda Cafe
DYEAR=2009
DGENRE=Chicago Blues, Delta Blues
TTITLE0=Honey Bee
TTITLE1=All The Girls I've Loved (Have Moved Off To NYC)
TTITLE2=Iodine In My Coffee
TTITLE3=Preachin' Blues
TTITLE4=She Wants To Sell My Monkey
TTITLE5=The Cooker
TTITLE6=Goin' Down To Eli's
TTITLE7=I'm Waitin' For My Man
TTITLE8='BC' Blues
EXTD=
EXTT0=
EXTT1=
EXTT2=
EXTT3=
EXTT4=
EXTT5=
EXTT6=
EXTT7=
EXTT8=
PLAYORDER=
